<?xml version="1.0" encoding="UTF-8" standalone="no"?>
<!-- Created with Inkscape (http://www.inkscape.org/) -->

<svg
   xmlns:dc="http://purl.org/dc/elements/1.1/"
   xmlns:cc="http://creativecommons.org/ns#"
   xmlns:rdf="http://www.w3.org/1999/02/22-rdf-syntax-ns#"
   xmlns:svg="http://www.w3.org/2000/svg"
   xmlns="http://www.w3.org/2000/svg"
   xmlns:sodipodi="http://sodipodi.sourceforge.net/DTD/sodipodi-0.dtd"
   xmlns:inkscape="http://www.inkscape.org/namespaces/inkscape"
   width="45.720001mm"
   height="128.5mm"
   viewBox="0 0 45.720001 128.5"
   version="1.1"
   id="svg11003"
   inkscape:version="0.92.4 (5da689c313, 2019-01-14)"
   sodipodi:docname="equation_composer_front_panel.svg">
  <defs
     id="defs10997" />
  <sodipodi:namedview
     id="base"
     pagecolor="#ffffff"
     bordercolor="#666666"
     borderopacity="1.0"
     inkscape:pageopacity="0.0"
     inkscape:pageshadow="2"
     inkscape:zoom="1.4"
     inkscape:cx="302.91428"
     inkscape:cy="225.54344"
     inkscape:document-units="mm"
     inkscape:current-layer="layer1"
     showgrid="false"
     fit-margin-top="0"
     fit-margin-left="0"
     fit-margin-right="0"
     fit-margin-bottom="0"
     inkscape:window-width="1920"
     inkscape:window-height="1017"
     inkscape:window-x="-8"
     inkscape:window-y="-8"
     inkscape:window-maximized="1"
     units="mm"
     showguides="true"
     inkscape:guide-bbox="true">
    <sodipodi:guide
       position="34.236375,25.767346"
       orientation="1,0"
       id="guide854"
       inkscape:locked="false" />
    <sodipodi:guide
       position="20.505209,19.276786"
       orientation="0,1"
       id="guide5229"
       inkscape:locked="false" />
    <sodipodi:guide
       position="25.513393,1.224"
       orientation="0,1"
       id="guide3678"
       inkscape:locked="false"
       inkscape:label=""
       inkscape:color="rgb(0,0,255)" />
    <sodipodi:guide
       position="44.478001,11.197545"
       orientation="1,0"
       id="guide3680"
       inkscape:locked="false"
       inkscape:label=""
       inkscape:color="rgb(0,0,255)" />
  </sodipodi:namedview>
  <metadata
     id="metadata11000">
    <rdf:RDF>
      <cc:Work
         rdf:about="">
        <dc:format>image/svg+xml</dc:format>
        <dc:type
           rdf:resource="http://purl.org/dc/dcmitype/StillImage" />
        <dc:title />
      </cc:Work>
    </rdf:RDF>
  </metadata>
  <g
     inkscape:label="Panel Layer"
     inkscape:groupmode="layer"
     id="layer1"
     transform="translate(-64.792954,-47.169623)"
     style="display:inline">
    <path
       inkscape:connector-curvature="0"
       id="path33429"
       d="M 64.792954,47.169629 H 110.51295 V 175.66963 H 64.792954 Z m 0,0"
       style="fill:#e6e6e6;fill-opacity:1;fill-rule:nonzero;stroke:none;stroke-width:0.33553743" />
    <path
       inkscape:connector-curvature="0"
       id="path36629"
       d="m 105.27397,151.33008 c 0,-0.70925 -0.58092,-1.29052 -1.2937,-1.29052 h -9.932574 c -0.710997,0 -1.293684,0.58127 -1.293684,1.29052 v 15.70134 c 0,0.70925 0.582687,1.29052 1.293684,1.29052 h 9.932574 c 0.71278,0 1.2937,-0.58127 1.2937,-1.29052 z m 0,0"
       style="fill:#000000;fill-opacity:1;fill-rule:nonzero;stroke:none;stroke-width:0.45561951" />
    <text
       xml:space="preserve"
       style="font-style:normal;font-weight:normal;font-size:4.58611107px;line-height:1.25;font-family:sans-serif;letter-spacing:0px;word-spacing:0px;fill:#000000;fill-opacity:1;stroke:none;stroke-width:0.26458332"
       x="75.943253"
       y="53.772301"
       id="text110"><tspan
         sodipodi:role="line"
         id="tspan108"
         x="75.943253"
         y="57.956348"
         style="font-size:4.58611107px;stroke-width:0.26458332" /></text>
    <g
       id="flowRoot27"
       style="font-style:normal;font-variant:normal;font-weight:normal;font-stretch:normal;font-size:40px;line-height:1.25;font-family:Corbel;-inkscape-font-specification:Corbel;letter-spacing:0px;word-spacing:0px;fill:#000000;fill-opacity:1;stroke:none;stroke-width:0.26458332"
       transform="matrix(0.26458333,0,0,0.26458333,62.426841,47.434064)" />
    <g
       id="text37"
       style="font-style:normal;font-variant:normal;font-weight:normal;font-stretch:normal;font-size:10.58333302px;line-height:1.25;font-family:Gabriola;-inkscape-font-specification:Gabriola;letter-spacing:0px;word-spacing:0px;fill:#000000;fill-opacity:1;stroke:none;stroke-width:0.07000434"
       transform="translate(-2.3661125,0.264441)" />
    <text
       id="text892"
       y="86.278252"
       x="74.846405"
       style="font-style:normal;font-variant:normal;font-weight:normal;font-stretch:normal;font-size:4.93888903px;line-height:1.25;font-family:'Share Tech Mono';-inkscape-font-specification:'Share Tech Mono';letter-spacing:0px;word-spacing:0px;fill:#000000;fill-opacity:1;stroke:none;stroke-width:0.07000434"
       xml:space="preserve"><tspan
         style="font-size:4.93888903px;stroke-width:0.07000434"
         y="90.773979"
         x="74.846405"
         id="tspan890"
         sodipodi:role="line" /></text>
    <g
       aria-label="voxglitch"
       style="font-style:normal;font-variant:normal;font-weight:normal;font-stretch:normal;font-size:3.88055563px;line-height:1.25;font-family:'Sitka Subheading';-inkscape-font-specification:'Sitka Subheading';letter-spacing:0px;word-spacing:0px;display:inline;fill:#999999;fill-opacity:1;stroke:none;stroke-width:0.26458332"
       id="text939"
       transform="translate(-40.927816,0.11296302)">
      <path
         d="m 139.18399,173.2094 q -0.01,-0.0251 -0.0289,-0.0389 -0.0176,-0.0138 -0.0426,-0.0226 l -0.0953,-0.0389 v -0.0778 h 0.58451 v 0.0778 l -0.18438,0.0539 0.29727,0.70116 0.059,0.17811 h 0.0138 l 0.3324,-0.85293 -0.17435,-0.0803 v -0.0778 h 0.47915 v 0.0778 l -0.0991,0.0615 q -0.0251,0.0125 -0.0439,0.0263 -0.0188,0.0138 -0.0289,0.0364 l -0.34369,0.83914 -0.13672,0.27344 h -0.10787 z"
         style="font-size:2.82222223px;fill:#999999;stroke-width:0.26458332"
         id="path941"
         inkscape:connector-curvature="0" />
      <path
         d="m 141.14323,174.36588 q -0.14048,0 -0.25588,-0.0477 -0.11539,-0.0477 -0.19818,-0.13547 -0.0815,-0.0891 -0.12669,-0.21574 -0.0439,-0.12669 -0.0439,-0.28348 0,-0.1455 0.0439,-0.27093 0.0452,-0.12544 0.12669,-0.21826 0.0828,-0.0928 0.20069,-0.1455 0.11791,-0.0539 0.26592,-0.0539 0.16055,0 0.2772,0.0564 0.11791,0.0564 0.19442,0.15052 0.0778,0.0941 0.1154,0.21825 0.0376,0.12292 0.0376,0.25839 0,0.14299 -0.0439,0.26843 -0.0439,0.12543 -0.12669,0.2195 -0.0815,0.0928 -0.19943,0.14676 -0.11791,0.0527 -0.26718,0.0527 z m 0.0188,-0.11791 q 0.10536,0 0.17435,-0.0514 0.0702,-0.0514 0.11038,-0.13045 0.0414,-0.0803 0.0577,-0.17561 0.0163,-0.0966 0.0163,-0.18564 0,-0.10912 -0.0213,-0.21449 -0.0201,-0.10661 -0.0665,-0.19065 -0.0451,-0.084 -0.1179,-0.13547 -0.0727,-0.0514 -0.17686,-0.0514 -0.0702,0 -0.12418,0.0238 -0.0527,0.0238 -0.0928,0.064 -0.0401,0.0401 -0.0677,0.0941 -0.0263,0.0527 -0.0439,0.11289 -0.0163,0.0602 -0.0238,0.12292 -0.006,0.0627 -0.006,0.12167 0,0.0665 0.008,0.13672 0.008,0.069 0.0251,0.13547 0.0188,0.0652 0.0477,0.12418 0.0289,0.059 0.0715,0.10285 0.0426,0.0439 0.0991,0.0702 0.0577,0.0263 0.1317,0.0263 z"
         style="font-size:2.82222223px;fill:#999999;stroke-width:0.26458332"
         id="path943"
         inkscape:connector-curvature="0" />
      <path
         d="m 141.90933,174.25424 0.11163,-0.0464 q 0.0263,-0.01 0.0502,-0.0289 0.0251,-0.0201 0.0389,-0.0364 l 0.35622,-0.44152 -0.3487,-0.48793 q -0.0151,-0.0226 -0.0351,-0.0389 -0.0201,-0.0176 -0.0489,-0.0263 l -0.11289,-0.0389 v -0.0778 h 0.57198 v 0.0778 l -0.13422,0.0514 0.19568,0.28096 0.069,0.12418 h 0.009 l 0.29351,-0.3926 -0.11916,-0.064 v -0.0778 h 0.44277 v 0.0778 l -0.11163,0.0477 q -0.0263,0.01 -0.0502,0.0289 -0.0226,0.0188 -0.0376,0.0364 l -0.34243,0.42396 0.36125,0.50549 q 0.0163,0.0226 0.0364,0.0401 0.0213,0.0163 0.0489,0.0251 l 0.10913,0.0376 v 0.079 h -0.57197 v -0.079 l 0.13672,-0.0502 -0.20947,-0.29978 -0.069,-0.12292 h -0.009 l -0.30605,0.41016 0.11916,0.0627 v 0.079 h -0.44403 z"
         style="font-size:2.82222223px;fill:#999999;stroke-width:0.26458332"
         id="path945"
         inkscape:connector-curvature="0" />
      <path
         d="m 143.66884,174.29815 q -0.0326,-0.01 -0.069,-0.0289 -0.0351,-0.0188 -0.0652,-0.0477 -0.0301,-0.0289 -0.0502,-0.0677 -0.0188,-0.0401 -0.0188,-0.0916 0,-0.0577 0.0213,-0.10034 0.0226,-0.0439 0.0564,-0.074 0.0339,-0.0314 0.0753,-0.0502 0.0414,-0.0188 0.079,-0.0276 v -0.009 q -0.0389,-0.0226 -0.0778,-0.0539 -0.0389,-0.0326 -0.0702,-0.0765 -0.0301,-0.0439 -0.0502,-0.10035 -0.0188,-0.0577 -0.0188,-0.13045 0,-0.0928 0.0364,-0.17435 0.0376,-0.0815 0.10536,-0.14174 0.0677,-0.0602 0.16306,-0.0941 0.0953,-0.0351 0.21198,-0.0351 0.0753,0 0.14299,0.01 0.0677,0.01 0.13045,0.0263 h 0.44027 l -0.0151,0.15428 -0.3324,-0.0426 v 0.008 q 0.0301,0.0326 0.0539,0.0652 0.0238,0.0326 0.0401,0.069 0.0176,0.0351 0.0263,0.0753 0.009,0.0389 0.009,0.0853 0,0.0928 -0.0351,0.17184 -0.0339,0.079 -0.0991,0.13798 -0.0652,0.0577 -0.16056,0.0903 -0.0941,0.0326 -0.21574,0.0326 -0.0314,0 -0.064,-0.003 -0.0314,-0.004 -0.0602,-0.008 -0.0289,-0.005 -0.0539,-0.0113 -0.0238,-0.006 -0.0401,-0.0126 -0.0188,0.004 -0.0376,0.0151 -0.0176,0.0113 -0.0326,0.0289 -0.0151,0.0163 -0.0251,0.0389 -0.009,0.0226 -0.009,0.0489 0,0.0263 0.009,0.0502 0.009,0.0226 0.0238,0.0401 0.0151,0.0176 0.0339,0.0301 0.0201,0.0113 0.0414,0.0151 h 0.44278 q 0.12543,0 0.20947,0.0301 0.0853,0.0301 0.13672,0.079 0.0527,0.0489 0.074,0.10912 0.0226,0.059 0.0226,0.11791 0,0.10913 -0.0539,0.19944 -0.0527,0.0916 -0.14551,0.15679 -0.0928,0.0665 -0.21825,0.10285 -0.12543,0.0364 -0.26968,0.0364 -0.12417,0 -0.22954,-0.0213 -0.10411,-0.0213 -0.18062,-0.064 -0.0765,-0.0414 -0.12041,-0.10285 -0.0427,-0.0615 -0.0427,-0.14174 0,-0.0652 0.0226,-0.1154 0.0238,-0.0502 0.0615,-0.0878 0.0376,-0.0364 0.0865,-0.0615 0.0502,-0.0251 0.10536,-0.0401 z m 0.31985,-0.52055 q 0.064,0 0.11289,-0.0238 0.0489,-0.0238 0.0815,-0.069 0.0326,-0.0451 0.0489,-0.10912 0.0176,-0.0652 0.0176,-0.14676 0,-0.079 -0.0188,-0.14048 -0.0188,-0.0615 -0.0539,-0.10411 -0.0339,-0.0427 -0.0828,-0.064 -0.0477,-0.0226 -0.10661,-0.0226 -0.0577,0 -0.10411,0.0213 -0.0464,0.0213 -0.0803,0.064 -0.0339,0.0414 -0.0527,0.10411 -0.0176,0.0615 -0.0176,0.143 0,0.0828 0.0176,0.14801 0.0188,0.064 0.0514,0.10912 0.0339,0.0439 0.0815,0.0677 0.0477,0.0226 0.10536,0.0226 z m -0.21449,0.5356 q -0.0238,0.006 -0.0502,0.0238 -0.0263,0.0176 -0.0477,0.0464 -0.0213,0.0289 -0.0351,0.069 -0.0138,0.0414 -0.0138,0.0941 0,0.0527 0.0188,0.0941 0.0188,0.0414 0.0502,0.0715 0.0326,0.0301 0.074,0.0502 0.0414,0.0201 0.0853,0.0326 0.0439,0.0125 0.0866,0.0176 0.0439,0.005 0.0803,0.005 0.0778,0 0.15428,-0.0163 0.0778,-0.0151 0.13797,-0.0514 0.0615,-0.0351 0.0991,-0.0916 0.0376,-0.0552 0.0376,-0.13422 0,-0.0364 -0.0151,-0.074 -0.0138,-0.0376 -0.0451,-0.0677 -0.0301,-0.0301 -0.0803,-0.0489 -0.0489,-0.0201 -0.11665,-0.0201 z"
         style="font-size:2.82222223px;fill:#999999;stroke-width:0.26458332"
         id="path947"
         inkscape:connector-curvature="0" />
      <path
         d="m 144.83179,174.25424 0.16933,-0.0439 q 0.0238,-0.006 0.0376,-0.0213 0.0151,-0.0163 0.0151,-0.0427 v -1.4826 q 0,-0.0289 -0.0163,-0.0464 -0.0163,-0.0188 -0.0464,-0.0288 l -0.16557,-0.0615 v -0.0702 l 0.46535,-0.0477 v 1.73723 q 0,0.0263 0.015,0.0427 0.0163,0.0163 0.0376,0.0213 l 0.16056,0.0439 v 0.079 h -0.67232 z"
         style="font-size:2.82222223px;fill:#999999;stroke-width:0.26458332"
         id="path949"
         inkscape:connector-curvature="0" />
      <path
         d="m 145.98401,172.74655 q -0.0351,0 -0.0665,-0.0113 -0.0301,-0.0125 -0.0539,-0.0326 -0.0226,-0.0201 -0.0364,-0.0489 -0.0138,-0.0301 -0.0138,-0.0665 0,-0.0364 0.0138,-0.0665 0.0138,-0.0301 0.0364,-0.0502 0.0238,-0.0213 0.0539,-0.0326 0.0314,-0.0113 0.0665,-0.0113 0.0376,0 0.0702,0.0113 0.0326,0.01 0.0552,0.0301 0.0238,0.0201 0.0364,0.0489 0.0138,0.0276 0.0138,0.064 0,0.0376 -0.0138,0.0677 -0.0125,0.0301 -0.0364,0.0527 -0.0238,0.0213 -0.0564,0.0339 -0.0326,0.0113 -0.069,0.0113 z m -0.32612,1.50769 0.1731,-0.0439 q 0.0238,-0.006 0.0389,-0.0213 0.0151,-0.0163 0.0151,-0.0427 v -0.85795 q 0,-0.0289 -0.0163,-0.0464 -0.0163,-0.0188 -0.0477,-0.0289 l -0.1593,-0.0552 v -0.0702 l 0.45908,-0.074 v 1.13265 q 0,0.0263 0.0151,0.0427 0.0163,0.0163 0.0376,0.0213 l 0.16683,0.0439 v 0.079 h -0.68235 z"
         style="font-size:2.82222223px;fill:#999999;stroke-width:0.26458332"
         id="path951"
         inkscape:connector-curvature="0" />
      <path
         d="m 146.65956,173.16299 h -0.20947 v -0.0966 q 0.0514,-0.01 0.0928,-0.0188 0.0426,-0.009 0.0727,-0.0276 0.0301,-0.0201 0.0477,-0.0552 0.0188,-0.0351 0.0226,-0.0966 l 0.01,-0.17435 0.20069,-0.0389 v 0.38005 h 0.46034 l -0.0188,0.12795 h -0.44152 v 0.87049 q 0,0.0414 0.0263,0.0703 0.0264,0.0288 0.064,0.0477 0.0389,0.0188 0.0803,0.0276 0.0414,0.008 0.0728,0.008 0.0213,0 0.0477,-0.004 0.0276,-0.005 0.0527,-0.01 0.0251,-0.006 0.0464,-0.0138 0.0226,-0.008 0.0339,-0.0126 h 0.0326 v 0.0891 q -0.0176,0.0113 -0.0539,0.0314 -0.0351,0.0201 -0.0828,0.0401 -0.0464,0.0201 -0.10286,0.0339 -0.0552,0.0151 -0.11163,0.0151 -0.0703,0 -0.13296,-0.0176 -0.0615,-0.0176 -0.10787,-0.0502 -0.0464,-0.0326 -0.074,-0.0803 -0.0276,-0.0489 -0.0276,-0.11164 z"
         style="font-size:2.82222223px;fill:#999999;stroke-width:0.26458332"
         id="path953"
         inkscape:connector-curvature="0" />
      <path
         d="m 148.58823,174.02345 v 0.12418 q -0.0427,0.0376 -0.0966,0.0765 -0.0527,0.0376 -0.11666,0.069 -0.0627,0.0314 -0.13546,0.0502 -0.0728,0.0201 -0.15428,0.0201 -0.13547,0 -0.2446,-0.0502 -0.10912,-0.0502 -0.18564,-0.13798 -0.0765,-0.089 -0.1179,-0.20821 -0.0401,-0.11917 -0.0401,-0.25839 0,-0.10035 0.0238,-0.19192 0.0251,-0.0916 0.0702,-0.17058 0.0452,-0.079 0.10787,-0.143 0.064,-0.0652 0.14049,-0.11038 0.0778,-0.0451 0.16682,-0.0702 0.0891,-0.0251 0.18564,-0.0251 0.074,0 0.13045,0.0125 0.0577,0.0113 0.10035,0.0276 0.0439,0.0151 0.074,0.0326 0.0314,0.0163 0.0552,0.0263 l -0.0201,0.23455 h -0.0464 q -0.0477,-0.0301 -0.0953,-0.0615 -0.0464,-0.0326 -0.0978,-0.0577 -0.0502,-0.0263 -0.10787,-0.0426 -0.0577,-0.0176 -0.1292,-0.0176 -0.0226,0 -0.0489,0.006 -0.0263,0.005 -0.0527,0.0163 -0.0263,0.0113 -0.0489,0.0263 -0.0226,0.0151 -0.0389,0.0339 -0.0201,0.0226 -0.0414,0.0565 -0.0201,0.0326 -0.0376,0.0828 -0.0163,0.0489 -0.0276,0.1154 -0.01,0.0665 -0.01,0.15553 0,0.12795 0.0276,0.22829 0.0276,0.10035 0.0828,0.17059 0.0552,0.0702 0.13672,0.10787 0.0815,0.0364 0.1894,0.0364 0.0602,0 0.11414,-0.0176 0.0552,-0.0176 0.10286,-0.0414 0.0477,-0.0251 0.0865,-0.0539 0.0401,-0.0289 0.069,-0.0514 z"
         style="font-size:2.82222223px;fill:#999999;stroke-width:0.26458332"
         id="path955"
         inkscape:connector-curvature="0" />
      <path
         d="m 148.74492,174.25424 0.14551,-0.0439 q 0.0263,-0.008 0.0389,-0.0226 0.0138,-0.0151 0.0138,-0.0414 v -1.4826 q 0,-0.0289 -0.0163,-0.0464 -0.0163,-0.0176 -0.0464,-0.0288 l -0.14425,-0.0615 v -0.0702 l 0.44278,-0.0477 v 0.73879 0.0677 q 0.0552,-0.0727 0.10787,-0.1154 0.0539,-0.0439 0.10536,-0.0665 0.0527,-0.0238 0.10286,-0.0314 0.0514,-0.008 0.1016,-0.008 0.0865,0 0.16181,0.0263 0.0765,0.0251 0.13295,0.079 0.0577,0.0539 0.0903,0.13923 0.0326,0.0853 0.0326,0.2032 v 0.6974 q 0,0.0314 0.0151,0.0477 0.0151,0.0163 0.0364,0.0226 l 0.13296,0.0439 v 0.079 h -0.60458 v -0.079 l 0.13296,-0.0439 q 0.0213,-0.006 0.0364,-0.0226 0.0151,-0.0163 0.0151,-0.0477 v -0.59956 q 0,-0.0878 -0.0113,-0.15554 -0.01,-0.069 -0.0414,-0.11665 -0.0314,-0.0489 -0.0878,-0.074 -0.0552,-0.0251 -0.1455,-0.0251 -0.0414,0 -0.084,0.006 -0.0426,0.006 -0.084,0.0213 -0.0414,0.0151 -0.079,0.0401 -0.0376,0.0251 -0.0665,0.0615 v 0.84792 q 0,0.0263 0.0138,0.0414 0.0151,0.0151 0.0389,0.0226 l 0.11791,0.0439 v 0.079 h -0.60459 z"
         style="font-size:2.82222223px;fill:#999999;stroke-width:0.26458332"
         id="path957"
         inkscape:connector-curvature="0" />
    </g>
    <g
       aria-label="EQUATION 
COMPOSER"
       style="font-style:normal;font-variant:normal;font-weight:normal;font-stretch:normal;font-size:4.23333311px;line-height:1.25;font-family:'Share Tech Mono';-inkscape-font-specification:'Share Tech Mono';letter-spacing:0px;word-spacing:0px;fill:#000000;fill-opacity:1;stroke:none;stroke-width:0.26458332"
       id="text951"
       transform="translate(-0.1551375)">
      <path
         d="m 80.439047,51.753914 v 0.309033 h -1.045633 v 0.969433 h 0.9398 v 0.309034 h -0.9398 v 1.0668 h 1.045633 v 0.309033 h -1.413933 v -2.963333 z"
         style="font-size:4.23333311px;stroke-width:0.26458332"
         id="path956"
         inkscape:connector-curvature="0" />
      <path
         d="m 82.505178,54.641047 q -0.1651,0.0762 -0.4064,0.0762 h -0.169333 q -0.3683,0 -0.567266,-0.1778 -0.194734,-0.182033 -0.194734,-0.541867 v -1.524 q 0,-0.359833 0.194734,-0.537633 0.198966,-0.182033 0.567266,-0.182033 h 0.169333 q 0.3683,0 0.563034,0.182033 0.198966,0.1778 0.198966,0.537633 v 1.524 q 0,0.249767 -0.09737,0.4191 l 0.309033,0.309034 -0.2413,0.2413 z m -0.0127,-2.2479 q 0,-0.131233 -0.09737,-0.224367 -0.09737,-0.09313 -0.254,-0.09313 h -0.254 q -0.156634,0 -0.254,0.09313 -0.09737,0.09313 -0.09737,0.224367 v 1.684867 q 0,0.131233 0.09737,0.224366 0.09737,0.09313 0.254,0.09313 h 0.254 q 0.156633,0 0.254,-0.09313 0.09737,-0.09313 0.09737,-0.224366 z"
         style="font-size:4.23333311px;stroke-width:0.26458332"
         id="path958"
         inkscape:connector-curvature="0" />
      <path
         d="m 85.108943,53.99758 q 0,0.359834 -0.198967,0.541867 -0.194733,0.1778 -0.563033,0.1778 H 84.24111 q -0.3683,0 -0.567267,-0.1778 Q 83.47911,54.357414 83.47911,53.99758 v -2.243666 h 0.3683 v 2.3241 q 0,0.131233 0.09737,0.224366 0.09737,0.09313 0.254,0.09313 h 0.1905 q 0.156634,0 0.254,-0.09313 0.09737,-0.09313 0.09737,-0.224366 v -2.3241 h 0.3683 z"
         style="font-size:4.23333311px;stroke-width:0.26458332"
         id="path960"
         inkscape:connector-curvature="0" />
      <path
         d="m 86.167541,53.967947 -0.1651,0.7493 h -0.376767 l 0.715433,-2.963333 h 0.486834 l 0.702733,2.963333 h -0.376767 l -0.160866,-0.7493 z m 0.757766,-0.3175 -0.347133,-1.617133 -0.3429,1.617133 z"
         style="font-size:4.23333311px;stroke-width:0.26458332"
         id="path962"
         inkscape:connector-curvature="0" />
      <path
         d="m 88.673938,54.717247 v -2.6416 h -0.6731 v -0.321733 h 1.7145 v 0.321733 h -0.6731 v 2.6416 z"
         style="font-size:4.23333311px;stroke-width:0.26458332"
         id="path964"
         inkscape:connector-curvature="0" />
      <path
         d="m 90.955969,54.408214 v -2.345267 h -0.381 v -0.309033 h 1.1303 v 0.309033 h -0.381 v 2.345267 h 0.381 v 0.309033 h -1.1303 v -0.309033 z"
         style="font-size:4.23333311px;stroke-width:0.26458332"
         id="path966"
         inkscape:connector-curvature="0" />
      <path
         d="m 94.270934,53.99758 q 0,0.359834 -0.198967,0.541867 -0.194733,0.1778 -0.563033,0.1778 H 93.3396 q -0.3683,0 -0.567266,-0.1778 Q 92.5776,54.357414 92.5776,53.99758 v -1.524 q 0,-0.359833 0.194734,-0.537633 0.198966,-0.182033 0.567266,-0.182033 h 0.169334 q 0.3683,0 0.563033,0.182033 0.198967,0.1778 0.198967,0.537633 z m -0.3683,-1.604433 q 0,-0.131233 -0.09737,-0.224367 -0.09737,-0.09313 -0.254,-0.09313 h -0.254 q -0.156633,0 -0.254,0.09313 -0.09737,0.09313 -0.09737,0.224367 v 1.684867 q 0,0.131233 0.09737,0.224366 0.09737,0.09313 0.254,0.09313 h 0.254 q 0.156633,0 0.254,-0.09313 0.09737,-0.09313 0.09737,-0.224366 z"
         style="font-size:4.23333311px;stroke-width:0.26458332"
         id="path968"
         inkscape:connector-curvature="0" />
      <path
         d="m 95.240632,54.717247 h -0.3429 v -2.963333 h 0.601133 l 0.668866,2.650066 v -2.650066 h 0.3429 v 2.963333 H 95.905265 L 95.240632,52.06718 Z"
         style="font-size:4.23333311px;stroke-width:0.26458332"
         id="path970"
         inkscape:connector-curvature="0" />
      <path
         d="m 79.812514,60.008913 q -0.3683,0 -0.567267,-0.1778 -0.194733,-0.182033 -0.194733,-0.541866 v -1.524 q 0,-0.359833 0.194733,-0.537633 0.198967,-0.182034 0.567267,-0.182034 h 0.601133 v 0.321734 h -0.643466 q -0.156634,0 -0.254,0.09313 -0.09737,0.09313 -0.09737,0.224367 v 1.684866 q 0,0.131233 0.09737,0.224367 0.09737,0.09313 0.254,0.09313 h 0.643466 v 0.321733 z"
         style="font-size:4.23333311px;stroke-width:0.26458332"
         id="path972"
         inkscape:connector-curvature="0" />
      <path
         d="m 82.860778,59.289247 q 0,0.359833 -0.198966,0.541866 -0.194734,0.1778 -0.563034,0.1778 h -0.169333 q -0.3683,0 -0.567266,-0.1778 -0.194734,-0.182033 -0.194734,-0.541866 v -1.524 q 0,-0.359833 0.194734,-0.537633 0.198966,-0.182034 0.567266,-0.182034 h 0.169333 q 0.3683,0 0.563034,0.182034 0.198966,0.1778 0.198966,0.537633 z m -0.3683,-1.604433 q 0,-0.131234 -0.09737,-0.224367 -0.09737,-0.09313 -0.254,-0.09313 h -0.254 q -0.156634,0 -0.254,0.09313 -0.09737,0.09313 -0.09737,0.224367 v 1.684866 q 0,0.131233 0.09737,0.224367 0.09737,0.09313 0.254,0.09313 h 0.254 q 0.156633,0 0.254,-0.09313 0.09737,-0.09313 0.09737,-0.224367 z"
         style="font-size:4.23333311px;stroke-width:0.26458332"
         id="path974"
         inkscape:connector-curvature="0" />
      <path
         d="M 84.465476,59.01408 H 84.11411 l -0.414867,-1.6637 v 2.658533 H 83.37751 V 57.04558 h 0.588433 l 0.338667,1.515533 0.3429,-1.515533 h 0.571499 v 2.963333 H 84.88881 V 57.35038 Z"
         style="font-size:4.23333311px;stroke-width:0.26458332"
         id="path976"
         inkscape:connector-curvature="0" />
      <path
         d="m 87.344407,58.18858 q 0,0.3429 -0.182033,0.508 -0.182033,0.160867 -0.537633,0.160867 h -0.440267 v 1.151466 h -0.3683 V 57.04558 h 0.8001 q 0.359833,0 0.541867,0.160867 0.186266,0.156633 0.186266,0.499533 z m -0.3683,-0.5207 q 0,-0.160866 -0.0762,-0.232833 -0.07197,-0.07197 -0.232833,-0.07197 h -0.4826 v 1.176867 h 0.4826 q 0.160867,0 0.232833,-0.07197 0.0762,-0.0762 0.0762,-0.237067 z"
         style="font-size:4.23333311px;stroke-width:0.26458332"
         id="path978"
         inkscape:connector-curvature="0" />
      <path
         d="m 89.706872,59.289247 q 0,0.359833 -0.198967,0.541866 -0.194733,0.1778 -0.563033,0.1778 h -0.169334 q -0.3683,0 -0.567266,-0.1778 -0.194734,-0.182033 -0.194734,-0.541866 v -1.524 q 0,-0.359833 0.194734,-0.537633 0.198966,-0.182034 0.567266,-0.182034 h 0.169334 q 0.3683,0 0.563033,0.182034 0.198967,0.1778 0.198967,0.537633 z m -0.3683,-1.604433 q 0,-0.131234 -0.09737,-0.224367 -0.09737,-0.09313 -0.254,-0.09313 h -0.254 q -0.156633,0 -0.254,0.09313 -0.09737,0.09313 -0.09737,0.224367 v 1.684866 q 0,0.131233 0.09737,0.224367 0.09737,0.09313 0.254,0.09313 h 0.254 q 0.156633,0 0.254,-0.09313 0.09737,-0.09313 0.09737,-0.224367 z"
         style="font-size:4.23333311px;stroke-width:0.26458332"
         id="path980"
         inkscape:connector-curvature="0" />
      <path
         d="m 91.857669,59.289247 q 0,0.359833 -0.198966,0.541866 -0.194734,0.1778 -0.563034,0.1778 H 90.494536 V 59.68718 h 0.643467 q 0.156633,0 0.254,-0.09313 0.09737,-0.09313 0.09737,-0.224367 v -0.440267 q 0,-0.127 -0.06773,-0.2032 -0.0635,-0.08043 -0.194733,-0.08043 h -0.127 q -0.313267,0 -0.4953,-0.182033 -0.182034,-0.186267 -0.182034,-0.537633 v -0.160867 q 0,-0.359833 0.194734,-0.537633 0.198966,-0.182034 0.567266,-0.182034 h 0.605367 v 0.321734 h -0.6477 q -0.156633,0 -0.254,0.09313 -0.09737,0.09313 -0.09737,0.224367 v 0.321733 q 0,0.131233 0.08467,0.220133 0.08467,0.08467 0.220133,0.08467 h 0.127 q 0.300567,0 0.465667,0.173566 0.169333,0.173567 0.169333,0.524934 z"
         style="font-size:4.23333311px;stroke-width:0.26458332"
         id="path982"
         inkscape:connector-curvature="0" />
      <path
         d="m 94.131234,57.04558 v 0.309034 H 93.0856 v 0.969433 h 0.9398 v 0.309033 h -0.9398 v 1.0668 h 1.045634 v 0.309033 H 92.7173 V 57.04558 Z"
         style="font-size:4.23333311px;stroke-width:0.26458332"
         id="path984"
         inkscape:connector-curvature="0" />
      <path
         d="m 95.227932,58.781247 v 1.227666 h -0.3683 V 57.04558 h 0.795866 q 0.359833,0 0.541867,0.160867 0.186266,0.156633 0.186266,0.499533 v 0.4064 q 0,0.478367 -0.381,0.5969 l 0.588434,1.299633 h -0.402167 l -0.5461,-1.227666 z m 0.787399,-1.113367 q 0,-0.160866 -0.0762,-0.232833 -0.07197,-0.07197 -0.232833,-0.07197 h -0.478366 v 1.100667 h 0.478366 q 0.160867,0 0.232833,-0.07197 0.0762,-0.0762 0.0762,-0.237067 z"
         style="font-size:4.23333311px;stroke-width:0.26458332"
         id="path986"
         inkscape:connector-curvature="0" />
    </g>
  </g>
</svg>
