<?xml version="1.0" encoding="UTF-8" standalone="no"?>
<!-- Created with Inkscape (http://www.inkscape.org/) -->

<svg
   xmlns:dc="http://purl.org/dc/elements/1.1/"
   xmlns:cc="http://creativecommons.org/ns#"
   xmlns:rdf="http://www.w3.org/1999/02/22-rdf-syntax-ns#"
   xmlns:svg="http://www.w3.org/2000/svg"
   xmlns="http://www.w3.org/2000/svg"
   xmlns:sodipodi="http://sodipodi.sourceforge.net/DTD/sodipodi-0.dtd"
   xmlns:inkscape="http://www.inkscape.org/namespaces/inkscape"
   width="86mm"
   height="128.5mm"
   viewBox="0 0 86 128.5"
   version="1.1"
   id="svg11003"
   inkscape:version="0.92.4 (5da689c313, 2019-01-14)"
   sodipodi:docname="evp_front_panel.svg">
  <defs
     id="defs10997" />
  <sodipodi:namedview
     id="base"
     pagecolor="#ffffff"
     bordercolor="#666666"
     borderopacity="1.0"
     inkscape:pageopacity="0.0"
     inkscape:pageshadow="2"
     inkscape:zoom="1.4"
     inkscape:cx="134.27683"
     inkscape:cy="282.46498"
     inkscape:document-units="mm"
     inkscape:current-layer="layer1"
     showgrid="false"
     fit-margin-top="0"
     fit-margin-left="0"
     fit-margin-right="0"
     fit-margin-bottom="0"
     inkscape:window-width="1920"
     inkscape:window-height="1137"
     inkscape:window-x="1912"
     inkscape:window-y="-8"
     inkscape:window-maximized="1"
     units="mm"
     showguides="true"
     inkscape:guide-bbox="true"
     showborder="false">
    <sodipodi:guide
       position="71.02409,73.847099"
       orientation="1,0"
       id="guide64"
       inkscape:locked="false" />
    <sodipodi:guide
       position="26,97.352927"
       orientation="1,0"
       id="guide904"
       inkscape:locked="false"
       inkscape:label=""
       inkscape:color="rgb(0,0,255)" />
    <sodipodi:guide
       position="43.231027,69.453126"
       orientation="0,1"
       id="guide887"
       inkscape:locked="false" />
    <sodipodi:guide
       position="71.809571,13.607143"
       orientation="0,1"
       id="guide1474"
       inkscape:locked="false" />
    <sodipodi:guide
       position="43.278274,81.45387"
       orientation="0,1"
       id="guide2089"
       inkscape:locked="false" />
    <sodipodi:guide
       position="43.969262,47.542318"
       orientation="0,1"
       id="guide2099"
       inkscape:locked="false" />
    <sodipodi:guide
       position="44.85952,25.21521"
       orientation="0,1"
       id="guide2127"
       inkscape:locked="false" />
    <sodipodi:guide
       position="75.771777,39.572594"
       orientation="0,1"
       id="guide914"
       inkscape:locked="false" />
    <sodipodi:guide
       position="71.803666,1.224"
       orientation="0,1"
       id="guide2221"
       inkscape:locked="false"
       inkscape:label=""
       inkscape:color="rgb(0,0,255)" />
    <sodipodi:guide
       position="84.75785,3.8419995"
       orientation="1,0"
       id="guide2225"
       inkscape:locked="false" />
    <sodipodi:guide
       position="75.737504,108.57825"
       orientation="0,1"
       id="guide2921"
       inkscape:locked="false" />
    <sodipodi:guide
       position="10,105.85696"
       orientation="1,0"
       id="guide2923"
       inkscape:locked="false"
       inkscape:label=""
       inkscape:color="rgb(0,0,255)" />
    <sodipodi:guide
       position="32.033483,95.500001"
       orientation="0,1"
       id="guide920"
       inkscape:locked="false"
       inkscape:label=""
       inkscape:color="rgb(0,0,255)" />
  </sodipodi:namedview>
  <metadata
     id="metadata11000">
    <rdf:RDF>
      <cc:Work
         rdf:about="">
        <dc:format>image/svg+xml</dc:format>
        <dc:type
           rdf:resource="http://purl.org/dc/dcmitype/StillImage" />
        <dc:title />
      </cc:Work>
    </rdf:RDF>
  </metadata>
  <g
     inkscape:label="Panel Layer"
     inkscape:groupmode="layer"
     id="layer1"
     transform="translate(-64.792954,-47.169623)"
     style="display:inline">
    <path
       inkscape:connector-curvature="0"
       id="path33429"
       d="M 64.792954,47.169629 H 150.79295 V 175.66963 H 64.792954 Z m 0,0"
       style="fill:#e6e6e6;fill-opacity:1;fill-rule:nonzero;stroke:none;stroke-width:0.46018988" />
    <path
       inkscape:connector-curvature="0"
       id="path36629"
       d="m 142.84504,151.33008 c 0,-0.70925 -0.58092,-1.29052 -1.2937,-1.29052 h -9.93261 c -0.711,0 -1.29369,0.58127 -1.29369,1.29052 v 15.70134 c 0,0.70925 0.58269,1.29052 1.29369,1.29052 h 9.93261 c 0.71278,0 1.2937,-0.58127 1.2937,-1.29052 z m 0,0"
       style="fill:#000000;fill-opacity:1;fill-rule:nonzero;stroke:none;stroke-width:0.45561951" />
    <text
       xml:space="preserve"
       style="font-style:normal;font-weight:normal;font-size:4.58611107px;line-height:1.25;font-family:sans-serif;letter-spacing:0px;word-spacing:0px;fill:#000000;fill-opacity:1;stroke:none;stroke-width:0.26458332"
       x="75.943253"
       y="53.772301"
       id="text110"><tspan
         sodipodi:role="line"
         id="tspan108"
         x="75.943253"
         y="57.956348"
         style="font-size:4.58611107px;stroke-width:0.26458332" /></text>
    <path
       inkscape:connector-curvature="0"
       id="path2137"
       style="font-style:normal;font-variant:normal;font-weight:normal;font-stretch:normal;font-size:3.52777767px;line-height:1.25;font-family:'Share Tech Mono';-inkscape-font-specification:'Share Tech Mono';letter-spacing:0px;word-spacing:0px;fill:#ffffff;fill-opacity:1;stroke:none;stroke-width:0.26458332"
       d="m 134.69393,153.41982 -0.22225,1.00189 h -0.42333 l -0.11994,-2.46945 h 0.26105 l 0.10583,2.20486 0.29281,-1.16416 h 0.21872 l 0.29986,1.16416 0.10936,-2.20486 h 0.24342 l -0.11994,2.46945 h -0.4445 z" />
    <path
       inkscape:connector-curvature="0"
       id="path2139"
       style="font-style:normal;font-variant:normal;font-weight:normal;font-stretch:normal;font-size:3.52777767px;line-height:1.25;font-family:'Share Tech Mono';-inkscape-font-specification:'Share Tech Mono';letter-spacing:0px;word-spacing:0px;fill:#ffffff;fill-opacity:1;stroke:none;stroke-width:0.26458332"
       d="m 136.26049,153.79729 -0.13759,0.62442 h -0.31397 l 0.5962,-2.46945 h 0.40569 l 0.58561,2.46945 h -0.31397 l -0.13406,-0.62442 z m 0.63147,-0.26458 -0.28928,-1.34761 -0.28575,1.34761 z" />
    <path
       inkscape:connector-curvature="0"
       id="path2141"
       style="font-style:normal;font-variant:normal;font-weight:normal;font-stretch:normal;font-size:3.52777767px;line-height:1.25;font-family:'Share Tech Mono';-inkscape-font-specification:'Share Tech Mono';letter-spacing:0px;word-spacing:0px;fill:#ffffff;fill-opacity:1;stroke:none;stroke-width:0.26458332"
       d="m 137.74943,151.95226 h 0.31044 l 0.42334,2.159 0.45508,-2.159 h 0.30339 l -0.55386,2.46945 h -0.41981 z" />
    <g
       aria-label="voxglitch"
       style="font-style:normal;font-variant:normal;font-weight:normal;font-stretch:normal;font-size:3.88055563px;line-height:1.25;font-family:'Sitka Subheading';-inkscape-font-specification:'Sitka Subheading';letter-spacing:0px;word-spacing:0px;fill:#999999;fill-opacity:1;stroke:none;stroke-width:0.26458332"
       id="text939"
       transform="translate(-0.66006751,0.11235302)">
      <path
         d="m 139.18399,173.2094 q -0.01,-0.0251 -0.0289,-0.0389 -0.0176,-0.0138 -0.0426,-0.0226 l -0.0953,-0.0389 v -0.0778 h 0.58451 v 0.0778 l -0.18438,0.0539 0.29727,0.70116 0.059,0.17811 h 0.0138 l 0.3324,-0.85293 -0.17435,-0.0803 v -0.0778 h 0.47915 v 0.0778 l -0.0991,0.0615 q -0.0251,0.0125 -0.0439,0.0263 -0.0188,0.0138 -0.0289,0.0364 l -0.34369,0.83914 -0.13672,0.27344 h -0.10787 z"
         style="font-size:2.82222223px;fill:#999999;stroke-width:0.26458332"
         id="path941"
         inkscape:connector-curvature="0" />
      <path
         d="m 141.14323,174.36588 q -0.14048,0 -0.25588,-0.0477 -0.11539,-0.0477 -0.19818,-0.13547 -0.0815,-0.0891 -0.12669,-0.21574 -0.0439,-0.12669 -0.0439,-0.28348 0,-0.1455 0.0439,-0.27093 0.0452,-0.12544 0.12669,-0.21826 0.0828,-0.0928 0.20069,-0.1455 0.11791,-0.0539 0.26592,-0.0539 0.16055,0 0.2772,0.0564 0.11791,0.0564 0.19442,0.15052 0.0778,0.0941 0.1154,0.21825 0.0376,0.12292 0.0376,0.25839 0,0.14299 -0.0439,0.26843 -0.0439,0.12543 -0.12669,0.2195 -0.0815,0.0928 -0.19943,0.14676 -0.11791,0.0527 -0.26718,0.0527 z m 0.0188,-0.11791 q 0.10536,0 0.17435,-0.0514 0.0702,-0.0514 0.11038,-0.13045 0.0414,-0.0803 0.0577,-0.17561 0.0163,-0.0966 0.0163,-0.18564 0,-0.10912 -0.0213,-0.21449 -0.0201,-0.10661 -0.0665,-0.19065 -0.0451,-0.084 -0.1179,-0.13547 -0.0727,-0.0514 -0.17686,-0.0514 -0.0702,0 -0.12418,0.0238 -0.0527,0.0238 -0.0928,0.064 -0.0401,0.0401 -0.0677,0.0941 -0.0263,0.0527 -0.0439,0.11289 -0.0163,0.0602 -0.0238,0.12292 -0.006,0.0627 -0.006,0.12167 0,0.0665 0.008,0.13672 0.008,0.069 0.0251,0.13547 0.0188,0.0652 0.0477,0.12418 0.0289,0.059 0.0715,0.10285 0.0426,0.0439 0.0991,0.0702 0.0577,0.0263 0.1317,0.0263 z"
         style="font-size:2.82222223px;fill:#999999;stroke-width:0.26458332"
         id="path943"
         inkscape:connector-curvature="0" />
      <path
         d="m 141.90933,174.25424 0.11163,-0.0464 q 0.0263,-0.01 0.0502,-0.0289 0.0251,-0.0201 0.0389,-0.0364 l 0.35622,-0.44152 -0.3487,-0.48793 q -0.0151,-0.0226 -0.0351,-0.0389 -0.0201,-0.0176 -0.0489,-0.0263 l -0.11289,-0.0389 v -0.0778 h 0.57198 v 0.0778 l -0.13422,0.0514 0.19568,0.28096 0.069,0.12418 h 0.009 l 0.29351,-0.3926 -0.11916,-0.064 v -0.0778 h 0.44277 v 0.0778 l -0.11163,0.0477 q -0.0263,0.01 -0.0502,0.0289 -0.0226,0.0188 -0.0376,0.0364 l -0.34243,0.42396 0.36125,0.50549 q 0.0163,0.0226 0.0364,0.0401 0.0213,0.0163 0.0489,0.0251 l 0.10913,0.0376 v 0.079 h -0.57197 v -0.079 l 0.13672,-0.0502 -0.20947,-0.29978 -0.069,-0.12292 h -0.009 l -0.30605,0.41016 0.11916,0.0627 v 0.079 h -0.44403 z"
         style="font-size:2.82222223px;fill:#999999;stroke-width:0.26458332"
         id="path945"
         inkscape:connector-curvature="0" />
      <path
         d="m 143.66884,174.29815 q -0.0326,-0.01 -0.069,-0.0289 -0.0351,-0.0188 -0.0652,-0.0477 -0.0301,-0.0289 -0.0502,-0.0677 -0.0188,-0.0401 -0.0188,-0.0916 0,-0.0577 0.0213,-0.10034 0.0226,-0.0439 0.0564,-0.074 0.0339,-0.0314 0.0753,-0.0502 0.0414,-0.0188 0.079,-0.0276 v -0.009 q -0.0389,-0.0226 -0.0778,-0.0539 -0.0389,-0.0326 -0.0702,-0.0765 -0.0301,-0.0439 -0.0502,-0.10035 -0.0188,-0.0577 -0.0188,-0.13045 0,-0.0928 0.0364,-0.17435 0.0376,-0.0815 0.10536,-0.14174 0.0677,-0.0602 0.16306,-0.0941 0.0953,-0.0351 0.21198,-0.0351 0.0753,0 0.14299,0.01 0.0677,0.01 0.13045,0.0263 h 0.44027 l -0.0151,0.15428 -0.3324,-0.0426 v 0.008 q 0.0301,0.0326 0.0539,0.0652 0.0238,0.0326 0.0401,0.069 0.0176,0.0351 0.0263,0.0753 0.009,0.0389 0.009,0.0853 0,0.0928 -0.0351,0.17184 -0.0339,0.079 -0.0991,0.13798 -0.0652,0.0577 -0.16056,0.0903 -0.0941,0.0326 -0.21574,0.0326 -0.0314,0 -0.064,-0.003 -0.0314,-0.004 -0.0602,-0.008 -0.0289,-0.005 -0.0539,-0.0113 -0.0238,-0.006 -0.0401,-0.0126 -0.0188,0.004 -0.0376,0.0151 -0.0176,0.0113 -0.0326,0.0289 -0.0151,0.0163 -0.0251,0.0389 -0.009,0.0226 -0.009,0.0489 0,0.0263 0.009,0.0502 0.009,0.0226 0.0238,0.0401 0.0151,0.0176 0.0339,0.0301 0.0201,0.0113 0.0414,0.0151 h 0.44278 q 0.12543,0 0.20947,0.0301 0.0853,0.0301 0.13672,0.079 0.0527,0.0489 0.074,0.10912 0.0226,0.059 0.0226,0.11791 0,0.10913 -0.0539,0.19944 -0.0527,0.0916 -0.14551,0.15679 -0.0928,0.0665 -0.21825,0.10285 -0.12543,0.0364 -0.26968,0.0364 -0.12417,0 -0.22954,-0.0213 -0.10411,-0.0213 -0.18062,-0.064 -0.0765,-0.0414 -0.12041,-0.10285 -0.0427,-0.0615 -0.0427,-0.14174 0,-0.0652 0.0226,-0.1154 0.0238,-0.0502 0.0615,-0.0878 0.0376,-0.0364 0.0865,-0.0615 0.0502,-0.0251 0.10536,-0.0401 z m 0.31985,-0.52055 q 0.064,0 0.11289,-0.0238 0.0489,-0.0238 0.0815,-0.069 0.0326,-0.0451 0.0489,-0.10912 0.0176,-0.0652 0.0176,-0.14676 0,-0.079 -0.0188,-0.14048 -0.0188,-0.0615 -0.0539,-0.10411 -0.0339,-0.0427 -0.0828,-0.064 -0.0477,-0.0226 -0.10661,-0.0226 -0.0577,0 -0.10411,0.0213 -0.0464,0.0213 -0.0803,0.064 -0.0339,0.0414 -0.0527,0.10411 -0.0176,0.0615 -0.0176,0.143 0,0.0828 0.0176,0.14801 0.0188,0.064 0.0514,0.10912 0.0339,0.0439 0.0815,0.0677 0.0477,0.0226 0.10536,0.0226 z m -0.21449,0.5356 q -0.0238,0.006 -0.0502,0.0238 -0.0263,0.0176 -0.0477,0.0464 -0.0213,0.0289 -0.0351,0.069 -0.0138,0.0414 -0.0138,0.0941 0,0.0527 0.0188,0.0941 0.0188,0.0414 0.0502,0.0715 0.0326,0.0301 0.074,0.0502 0.0414,0.0201 0.0853,0.0326 0.0439,0.0125 0.0866,0.0176 0.0439,0.005 0.0803,0.005 0.0778,0 0.15428,-0.0163 0.0778,-0.0151 0.13797,-0.0514 0.0615,-0.0351 0.0991,-0.0916 0.0376,-0.0552 0.0376,-0.13422 0,-0.0364 -0.0151,-0.074 -0.0138,-0.0376 -0.0451,-0.0677 -0.0301,-0.0301 -0.0803,-0.0489 -0.0489,-0.0201 -0.11665,-0.0201 z"
         style="font-size:2.82222223px;fill:#999999;stroke-width:0.26458332"
         id="path947"
         inkscape:connector-curvature="0" />
      <path
         d="m 144.83179,174.25424 0.16933,-0.0439 q 0.0238,-0.006 0.0376,-0.0213 0.0151,-0.0163 0.0151,-0.0427 v -1.4826 q 0,-0.0289 -0.0163,-0.0464 -0.0163,-0.0188 -0.0464,-0.0288 l -0.16557,-0.0615 v -0.0702 l 0.46535,-0.0477 v 1.73723 q 0,0.0263 0.015,0.0427 0.0163,0.0163 0.0376,0.0213 l 0.16056,0.0439 v 0.079 h -0.67232 z"
         style="font-size:2.82222223px;fill:#999999;stroke-width:0.26458332"
         id="path949"
         inkscape:connector-curvature="0" />
      <path
         d="m 145.98401,172.74655 q -0.0351,0 -0.0665,-0.0113 -0.0301,-0.0125 -0.0539,-0.0326 -0.0226,-0.0201 -0.0364,-0.0489 -0.0138,-0.0301 -0.0138,-0.0665 0,-0.0364 0.0138,-0.0665 0.0138,-0.0301 0.0364,-0.0502 0.0238,-0.0213 0.0539,-0.0326 0.0314,-0.0113 0.0665,-0.0113 0.0376,0 0.0702,0.0113 0.0326,0.01 0.0552,0.0301 0.0238,0.0201 0.0364,0.0489 0.0138,0.0276 0.0138,0.064 0,0.0376 -0.0138,0.0677 -0.0125,0.0301 -0.0364,0.0527 -0.0238,0.0213 -0.0564,0.0339 -0.0326,0.0113 -0.069,0.0113 z m -0.32612,1.50769 0.1731,-0.0439 q 0.0238,-0.006 0.0389,-0.0213 0.0151,-0.0163 0.0151,-0.0427 v -0.85795 q 0,-0.0289 -0.0163,-0.0464 -0.0163,-0.0188 -0.0477,-0.0289 l -0.1593,-0.0552 v -0.0702 l 0.45908,-0.074 v 1.13265 q 0,0.0263 0.0151,0.0427 0.0163,0.0163 0.0376,0.0213 l 0.16683,0.0439 v 0.079 h -0.68235 z"
         style="font-size:2.82222223px;fill:#999999;stroke-width:0.26458332"
         id="path951"
         inkscape:connector-curvature="0" />
      <path
         d="m 146.65956,173.16299 h -0.20947 v -0.0966 q 0.0514,-0.01 0.0928,-0.0188 0.0426,-0.009 0.0727,-0.0276 0.0301,-0.0201 0.0477,-0.0552 0.0188,-0.0351 0.0226,-0.0966 l 0.01,-0.17435 0.20069,-0.0389 v 0.38005 h 0.46034 l -0.0188,0.12795 h -0.44152 v 0.87049 q 0,0.0414 0.0263,0.0703 0.0264,0.0288 0.064,0.0477 0.0389,0.0188 0.0803,0.0276 0.0414,0.008 0.0728,0.008 0.0213,0 0.0477,-0.004 0.0276,-0.005 0.0527,-0.01 0.0251,-0.006 0.0464,-0.0138 0.0226,-0.008 0.0339,-0.0126 h 0.0326 v 0.0891 q -0.0176,0.0113 -0.0539,0.0314 -0.0351,0.0201 -0.0828,0.0401 -0.0464,0.0201 -0.10286,0.0339 -0.0552,0.0151 -0.11163,0.0151 -0.0703,0 -0.13296,-0.0176 -0.0615,-0.0176 -0.10787,-0.0502 -0.0464,-0.0326 -0.074,-0.0803 -0.0276,-0.0489 -0.0276,-0.11164 z"
         style="font-size:2.82222223px;fill:#999999;stroke-width:0.26458332"
         id="path953"
         inkscape:connector-curvature="0" />
      <path
         d="m 148.58823,174.02345 v 0.12418 q -0.0427,0.0376 -0.0966,0.0765 -0.0527,0.0376 -0.11666,0.069 -0.0627,0.0314 -0.13546,0.0502 -0.0728,0.0201 -0.15428,0.0201 -0.13547,0 -0.2446,-0.0502 -0.10912,-0.0502 -0.18564,-0.13798 -0.0765,-0.089 -0.1179,-0.20821 -0.0401,-0.11917 -0.0401,-0.25839 0,-0.10035 0.0238,-0.19192 0.0251,-0.0916 0.0702,-0.17058 0.0452,-0.079 0.10787,-0.143 0.064,-0.0652 0.14049,-0.11038 0.0778,-0.0451 0.16682,-0.0702 0.0891,-0.0251 0.18564,-0.0251 0.074,0 0.13045,0.0125 0.0577,0.0113 0.10035,0.0276 0.0439,0.0151 0.074,0.0326 0.0314,0.0163 0.0552,0.0263 l -0.0201,0.23455 h -0.0464 q -0.0477,-0.0301 -0.0953,-0.0615 -0.0464,-0.0326 -0.0978,-0.0577 -0.0502,-0.0263 -0.10787,-0.0426 -0.0577,-0.0176 -0.1292,-0.0176 -0.0226,0 -0.0489,0.006 -0.0263,0.005 -0.0527,0.0163 -0.0263,0.0113 -0.0489,0.0263 -0.0226,0.0151 -0.0389,0.0339 -0.0201,0.0226 -0.0414,0.0565 -0.0201,0.0326 -0.0376,0.0828 -0.0163,0.0489 -0.0276,0.1154 -0.01,0.0665 -0.01,0.15553 0,0.12795 0.0276,0.22829 0.0276,0.10035 0.0828,0.17059 0.0552,0.0702 0.13672,0.10787 0.0815,0.0364 0.1894,0.0364 0.0602,0 0.11414,-0.0176 0.0552,-0.0176 0.10286,-0.0414 0.0477,-0.0251 0.0865,-0.0539 0.0401,-0.0289 0.069,-0.0514 z"
         style="font-size:2.82222223px;fill:#999999;stroke-width:0.26458332"
         id="path955"
         inkscape:connector-curvature="0" />
      <path
         d="m 148.74492,174.25424 0.14551,-0.0439 q 0.0263,-0.008 0.0389,-0.0226 0.0138,-0.0151 0.0138,-0.0414 v -1.4826 q 0,-0.0289 -0.0163,-0.0464 -0.0163,-0.0176 -0.0464,-0.0288 l -0.14425,-0.0615 v -0.0702 l 0.44278,-0.0477 v 0.73879 0.0677 q 0.0552,-0.0727 0.10787,-0.1154 0.0539,-0.0439 0.10536,-0.0665 0.0527,-0.0238 0.10286,-0.0314 0.0514,-0.008 0.1016,-0.008 0.0865,0 0.16181,0.0263 0.0765,0.0251 0.13295,0.079 0.0577,0.0539 0.0903,0.13923 0.0326,0.0853 0.0326,0.2032 v 0.6974 q 0,0.0314 0.0151,0.0477 0.0151,0.0163 0.0364,0.0226 l 0.13296,0.0439 v 0.079 h -0.60458 v -0.079 l 0.13296,-0.0439 q 0.0213,-0.006 0.0364,-0.0226 0.0151,-0.0163 0.0151,-0.0477 v -0.59956 q 0,-0.0878 -0.0113,-0.15554 -0.01,-0.069 -0.0414,-0.11665 -0.0314,-0.0489 -0.0878,-0.074 -0.0552,-0.0251 -0.1455,-0.0251 -0.0414,0 -0.084,0.006 -0.0426,0.006 -0.084,0.0213 -0.0414,0.0151 -0.079,0.0401 -0.0376,0.0251 -0.0665,0.0615 v 0.84792 q 0,0.0263 0.0138,0.0414 0.0151,0.0151 0.0389,0.0226 l 0.11791,0.0439 v 0.079 h -0.60459 z"
         style="font-size:2.82222223px;fill:#999999;stroke-width:0.26458332"
         id="path957"
         inkscape:connector-curvature="0" />
    </g>
    <text
       xml:space="preserve"
       style="font-style:normal;font-variant:normal;font-weight:normal;font-stretch:normal;font-size:3.88055563px;line-height:1.25;font-family:'Share Tech Mono';-inkscape-font-specification:'Share Tech Mono';letter-spacing:0px;word-spacing:0px;fill:#000000;fill-opacity:1;stroke:none;stroke-width:0.26458332;"
       x="110.48083"
       y="98.467987"
       id="text2911"><tspan
         sodipodi:role="line"
         id="tspan2909"
         x="110.48083"
         y="101.89021"
         style="stroke-width:0.26458332;-inkscape-font-specification:'Share Tech Mono';font-family:'Share Tech Mono';font-weight:normal;font-style:normal;font-stretch:normal;font-variant:normal;" /></text>
    <text
       xml:space="preserve"
       style="font-style:normal;font-variant:normal;font-weight:normal;font-stretch:normal;font-size:3.88055563px;line-height:1.25;font-family:'Share Tech Mono';-inkscape-font-specification:'Share Tech Mono';letter-spacing:0px;word-spacing:0px;fill:#000000;fill-opacity:1;stroke:none;stroke-width:0.26458332;"
       x="101.74013"
       y="99.554665"
       id="text2915"><tspan
         sodipodi:role="line"
         id="tspan2913"
         x="101.74013"
         y="102.97688"
         style="stroke-width:0.26458332;-inkscape-font-specification:'Share Tech Mono';font-family:'Share Tech Mono';font-weight:normal;font-style:normal;font-stretch:normal;font-variant:normal;" /></text>
    <g
       aria-label="EVP"
       style="font-style:normal;font-variant:normal;font-weight:normal;font-stretch:normal;font-size:4.93888903px;line-height:1.25;font-family:'Share Tech Mono';-inkscape-font-specification:'Share Tech Mono';letter-spacing:0px;word-spacing:0px;fill:#000000;fill-opacity:1;stroke:none;stroke-width:0.26458332"
       id="text1043">
      <path
         d="m 105.92081,52.469402 v 0.360539 h -1.21991 v 1.131005 h 1.09643 v 0.360539 h -1.09643 v 1.2446 h 1.21991 v 0.360539 h -1.64959 v -3.457222 z"
         style="font-size:4.93888903px;stroke-width:0.26458332"
         id="path1045" />
      <path
         d="m 106.70146,52.469402 h 0.43462 l 0.59267,3.0226 0.63712,-3.0226 h 0.42474 l -0.77541,3.457222 h -0.58772 z"
         style="font-size:4.93888903px;stroke-width:0.26458332"
         id="path1047" />
      <path
         d="m 111.31469,53.802902 q 0,0.40005 -0.21237,0.592667 -0.21237,0.187677 -0.62724,0.187677 h -0.51364 v 1.343378 h -0.42969 v -3.457222 h 0.93345 q 0.41981,0 0.63218,0.187678 0.21731,0.182739 0.21731,0.582789 z m -0.42968,-0.607483 q 0,-0.187678 -0.0889,-0.271639 -0.084,-0.08396 -0.27164,-0.08396 h -0.56303 v 1.373011 h 0.56303 q 0.18768,0 0.27164,-0.08396 0.0889,-0.0889 0.0889,-0.276578 z"
         style="font-size:4.93888903px;stroke-width:0.26458332"
         id="path1049" />
    </g>
  </g>
</svg>
